HIERARCHY
ROOT Hips
{
	OFFSET 0.000000 0.000000 0.000000
	CHANNELS 6 Xposition Yposition Zposition Zrotation Yrotation Xrotation 
	JOINT LowerBack
	{
		OFFSET 0.000000 0.000000 0.000000
		CHANNELS 3 Zrotation Yrotation Xrotation
		JOINT Spine
		{
			OFFSET 0.028270 2.035590 -0.193380
			CHANNELS 3 Zrotation Yrotation Xrotation
			JOINT Spine1
			{
				OFFSET 0.056720 2.048850 -0.042750
				CHANNELS 3 Zrotation Yrotation Xrotation
				JOINT Neck
				{
					OFFSET 0.000000 0.000000 0.000000
					CHANNELS 3 Zrotation Yrotation Xrotation
					JOINT Neck1
					{
						OFFSET -0.054170 1.746240 0.172020
						CHANNELS 3 Zrotation Yrotation Xrotation
						JOINT Head
						{
							OFFSET 0.104070 1.761360 -0.123970
							CHANNELS 3 Zrotation Yrotation Xrotation
							End Site
							{
								OFFSET 0.000000 0.000000 0.000000
							}
						}
					}
				}
				JOINT LeftShoulder
				{
					OFFSET 0.000000 0.000000 0.000000
					CHANNELS 3 Zrotation Yrotation Xrotation
					JOINT LeftArm
					{
						OFFSET 3.362410 1.200890 -0.311210
						CHANNELS 3 Zrotation Yrotation Xrotation
						JOINT LeftForeArm
						{
							OFFSET 4.983000 -0.000000 -0.000000
							CHANNELS 3 Zrotation Yrotation Xrotation
							JOINT LeftHand
							{
								OFFSET 3.483560 -0.000000 -0.000000
								CHANNELS 3 Zrotation Yrotation Xrotation
								JOINT LeftFingerBase
								{
									OFFSET 0.000000 0.000000 0.000000
									CHANNELS 3 Zrotation Yrotation Xrotation
									JOINT LeftHandIndex1
									{
										OFFSET 0.715260 -0.000000 -0.000000
										CHANNELS 3 Zrotation Yrotation Xrotation
										End Site
										{
											OFFSET 0.000000 0.000000 0.000000
										}
									}
								}
								JOINT LThumb
								{
									OFFSET 0.000000 0.000000 0.000000
									CHANNELS 3 Zrotation Yrotation Xrotation
									End Site
									{
										OFFSET 0.000000 0.000000 0.000000
									}
								}
							}
						}
					}
				}
				JOINT RightShoulder
				{
					OFFSET 0.000000 0.000000 0.000000
					CHANNELS 3 Zrotation Yrotation Xrotation
					JOINT RightArm
					{
						OFFSET -3.136600 1.374050 -0.404650
						CHANNELS 3 Zrotation Yrotation Xrotation
						JOINT RightForeArm
						{
							OFFSET -5.241900 -0.000000 -0.000000
							CHANNELS 3 Zrotation Yrotation Xrotation
							JOINT RightHand
							{
								OFFSET -3.444170 -0.000000 -0.000000
								CHANNELS 3 Zrotation Yrotation Xrotation
								JOINT RightFingerBase
								{
									OFFSET 0.000000 0.000000 0.000000
									CHANNELS 3 Zrotation Yrotation Xrotation
									JOINT RightHandIndex1
									{
										OFFSET -0.622530 -0.000000 -0.000000
										CHANNELS 3 Zrotation Yrotation Xrotation
										End Site
										{
											OFFSET 0.000000 0.000000 0.000000
										}
									}
								}
								JOINT RThumb
								{
									OFFSET 0.000000 0.000000 0.000000
									CHANNELS 3 Zrotation Yrotation Xrotation
									End Site
									{
										OFFSET 0.000000 0.000000 0.000000
									}
								}
							}
						}
					}
				}
			}
		}
	}
}
}
MOTION
Frames: 9
Frame Time: 0.008333
3.250240 17.196934 1.867564 -28.940428 -77.654212 34.623516 4.665916 -4.097214 2.996084 -0.092028 -4.303690 -2.692660 -7.967285 -4.322691 -0.889534 12.724867 -7.198932 -5.027578 -4.353942 -0.348732 0.614475 0.000000 0.000000 0.000000 -1.850903 -3.972293 2.030619 -68.821322 -4.323313 15.285195 -2.865293 -28.587423 0.000323 4.942063 -4.544889 -0.202268 -0.076868 0.081785 0.000000 0.000000 0.000000 0.000000 0.000000 0.000000 0.000000 20.995994 -7.199660 1.255861 71.511136 -0.615179 -4.741463 3.401798 19.267120 0.011669 0.582527 9.508001 0.044073 0.062119 -0.067052 -0.000000 0.000000 0.000000 0.000000 0.000000 0.000000 0.000000 
3.246533 17.189780 1.867537 -29.146604 -77.649466 34.706828 4.555285 -4.017330 2.884815 -0.116059 -4.228182 -2.682218 -7.986004 -4.245321 -0.837051 12.845471 -7.370381 -5.057221 -4.348405 -0.348711 0.610464 0.000000 0.000000 0.000000 -1.839999 -3.775274 1.959754 -68.844196 -4.371430 15.892055 -2.860292 -28.812432 0.000608 4.717951 -4.423127 -0.188059 -0.077091 0.080629 0.000000 0.000000 0.000000 0.000000 0.000000 0.000000 0.000000 21.123767 -7.308414 1.217028 71.397045 -0.641975 -4.783537 3.399377 19.458923 0.011803 0.521191 9.593861 0.039179 0.062703 -0.067397 -0.000000 0.000000 0.000000 0.000000 0.000000 0.000000 0.000000 
3.243924 17.182639 1.868396 -29.567015 -77.731960 34.914699 4.462950 -3.922948 2.883370 -0.142940 -4.132913 -2.666869 -8.001233 -4.148376 -0.805290 12.934272 -7.485275 -5.087722 -4.340686 -0.348173 0.604028 0.000000 0.000000 0.000000 -1.882534 -3.538093 1.905472 -68.837326 -4.408640 16.428107 -2.852830 -29.087878 0.000856 4.515998 -4.327438 -0.176151 -0.077053 0.079601 0.000000 0.000000 0.000000 0.000000 0.000000 0.000000 0.000000 21.200223 -7.345529 1.190143 71.293980 -0.660906 -4.824633 3.396833 19.611240 0.011957 0.433917 9.712786 0.032185 0.063356 -0.067980 -0.000000 0.000000 0.000000 0.000000 0.000000 0.000000 0.000000 
3.242808 17.175850 1.870423 -30.247058 -77.906657 35.346476 4.402387 -3.813511 2.954566 -0.172463 -4.019183 -2.662382 -8.012293 -4.033021 -0.792527 12.985171 -7.535380 -5.120739 -4.330494 -0.347012 0.594401 0.000000 0.000000 0.000000 -1.978226 -3.234212 1.869704 -68.808269 -4.457771 16.900071 -2.843944 -29.385259 0.001067 4.357425 -4.271362 -0.167844 -0.076933 0.078766 0.000000 0.000000 0.000000 0.000000 0.000000 0.000000 0.000000 21.216311 -7.308911 1.172873 71.206141 -0.664583 -4.863066 3.395912 19.713962 0.012134 0.330119 9.857490 0.023591 0.064089 -0.068685 -0.000000 0.000000 0.000000 0.000000 0.000000 0.000000 0.000000 
3.242935 17.169953 1.873004 -31.214402 -78.106967 35.895422 4.381433 -3.706210 3.191370 -0.194720 -3.902372 -2.626007 -8.019255 -3.914414 -0.798685 13.004295 -7.518709 -5.142404 -4.318815 -0.345560 0.585789 0.000000 0.000000 0.000000 -2.113806 -2.914693 1.847386 -68.763611 -4.486978 17.264132 -2.832183 -29.709411 0.001229 4.253582 -4.260916 -0.163438 -0.076682 0.078205 0.000000 0.000000 0.000000 0.000000 0.000000 0.000000 0.000000 21.182151 -7.193432 1.165876 71.132491 -0.652504 -4.889456 3.395001 19.761204 0.012301 0.218522 10.016795 0.014095 0.064725 -0.069490 -0.000000 0.000000 0.000000 0.000000 0.000000 0.000000 0.000000 
3.243182 17.165804 1.877723 -32.593480 -78.322755 36.775975 4.437905 -3.595390 3.501437 -0.200742 -3.783008 -2.574024 -8.020626 -3.793405 -0.813465 12.981992 -7.440174 -5.155875 -4.305521 -0.343921 0.578695 0.000000 0.000000 0.000000 -2.314038 -2.554844 1.833252 -68.708721 -4.503600 17.530964 -2.816603 -30.038453 0.001340 4.216716 -4.301327 -0.163534 -0.076353 0.077893 0.000000 0.000000 0.000000 0.000000 0.000000 0.000000 0.000000 21.087505 -7.005324 1.164265 71.057557 -0.623932 -4.893786 3.399028 19.750902 0.012490 0.110921 10.176608 0.004601 0.065458 -0.070288 -0.000000 0.000000 0.000000 0.000000 0.000000 0.000000 0.000000 
3.243408 17.163759 1.884219 -34.259359 -78.566639 37.913883 4.536924 -3.481400 3.843830 -0.196230 -3.661132 -2.515162 -8.015371 -3.670425 -0.835514 12.922839 -7.307364 -5.158807 -4.290902 -0.342213 0.574167 0.000000 0.000000 0.000000 -2.564200 -2.175795 1.824318 -68.654331 -4.485583 17.678873 -2.797474 -30.366228 0.001403 4.248256 -4.390618 -0.168131 -0.075917 0.077707 0.000000 0.000000 0.000000 0.000000 0.000000 0.000000 0.000000 20.940888 -6.756634 1.167627 70.981532 -0.575709 -4.878399 3.408086 19.683430 0.012698 0.020796 10.320870 -0.003594 0.066268 -0.071035 -0.000000 0.000000 0.000000 0.000000 0.000000 0.000000 0.000000 
3.242814 17.163888 1.892212 -36.090223 -78.827933 39.238483 4.657777 -3.368041 4.165902 -0.183948 -3.541637 -2.459397 -8.002112 -3.550509 -0.859049 12.831269 -7.136861 -5.153245 -4.274678 -0.340490 0.572390 0.000000 0.000000 0.000000 -2.850936 -1.782959 1.816211 -68.611824 -4.425110 17.713808 -2.775476 -30.675510 0.001423 4.346066 -4.524292 -0.177030 -0.075410 0.077543 0.000000 0.000000 0.000000 0.000000 0.000000 0.000000 0.000000 20.749506 -6.469913 1.172029 70.902533 -0.509210 -4.841468 3.422898 19.564688 0.012927 -0.039826 10.434374 -0.009289 0.067181 -0.071638 -0.000000 0.000000 0.000000 0.000000 0.000000 0.000000 0.000000 
3.240608 17.166099 1.900888 -37.923702 -79.090482 40.617388 4.775129 -3.261251 4.438983 -0.168042 -3.430340 -2.411776 -7.980558 -3.439430 -0.879931 12.716005 -6.947957 -5.140999 -4.256755 -0.338797 0.573297 0.000000 0.000000 0.000000 -3.150856 -1.390845 1.805734 -68.592233 -4.313723 17.642758 -2.751725 -30.951744 0.001411 4.500623 -4.692760 -0.190029 -0.074856 0.077290 0.000000 0.000000 0.000000 0.000000 0.000000 0.000000 0.000000 20.525942 -6.171042 1.174656 70.823430 -0.425662 -4.786193 3.442909 19.403840 0.013168 -0.060674 10.503788 -0.011385 0.068163 -0.072027 -0.000000 0.000000 0.000000 0.000000 0.000000 0.000000 0.000000 
